<svg width="70" height="58" xmlns="http://www.w3.org/2000/svg" xmlns:xlink="http://www.w3.org/1999/xlink" overflow="hidden"><defs><clipPath id="clip0"><rect x="936" y="533" width="70" height="58"/></clipPath></defs><g clip-path="url(#clip0)" transform="translate(-936 -533)"><path d="M951.528 575.324C950.969 574.831 950.136 574.909 949.668 575.497L946.367 579.646 945.174 578.582C944.617 578.086 943.784 578.159 943.313 578.744 942.842 579.33 942.911 580.207 943.467 580.703L945.673 582.671C945.912 582.884 946.215 583 946.526 583 946.564 583 946.601 582.998 946.639 582.995 946.989 582.963 947.313 582.786 947.538 582.503L951.692 577.282C952.16 576.694 952.086 575.817 951.528 575.324Z" fill="#FDC040" fill-rule="evenodd"/><path d="M979.423 549 979.423 553.073C979.423 553.582 977.456 555.109 976.965 555.109L968.117 555.109C967.298 554.939 965.659 554.905 965.659 556.127L965.659 559.691 963.693 560.2C963.202 560.539 962.219 561.32 962.219 561.727 962.219 562.236 961.727 563.255 962.219 563.764 962.71 564.273 963.693 564.782 964.185 565.291 964.676 565.8 965.659 565.291 965.659 565.8L965.659 567.836C965.659 568.244 965.987 569.364 966.151 569.873 966.478 570.212 967.232 570.891 967.625 570.891 968.019 570.891 968.772 571.23 969.1 571.4L969.1 572.927C969.1 573.335 969.755 574.455 970.083 574.964 970.575 575.303 971.754 575.982 972.541 575.982 973.524 575.982 981.88 577 983.355 577 984.535 577 988.434 576.321 990.237 575.982L993.678 573.436 998.593 572.418 1001.54 572.418 1003.51 571.4 1003.51 568.855 1004 558.164 1003.02 556.127 999.576 556.127C999.183 556.127 997.446 554.77 996.627 554.091 995.971 553.582 994.661 552.462 994.661 552.055 994.661 551.647 991.711 550.188 990.237 549.509L988.27 549 983.355 549 980.897 549 979.423 549Z" fill="#FDC040" fill-rule="evenodd"/><path d="M961 535 961 547 965 545.5 966.5 544.5 971.5 547 973 545.5 972.5 536 971 535 966 535 961 535Z" fill="#FDC040" fill-rule="evenodd"/><path d="M979.5 549.669C979.5 550.85 979.5 553.312 979.5 553.717M979.5 549.669 979.5 553.717M979.5 549.669 981 549.669M979.5 553.717C979.5 554.223 977.5 555.741 977 555.741M977 555.741C976.6 555.741 970.833 555.741 968 555.741M977 555.741 968 555.741M968 555.741C967.167 555.572 965.5 555.539 965.5 556.753M965.5 556.753C965.5 557.968 965.5 559.621 965.5 560.295M965.5 556.753 965.5 560.295M965.5 560.295 963.5 560.801C963 561.139 962 561.914 962 562.319 962 562.825 961.5 563.837 962 564.344 962.5 564.849 963.5 565.356 964 565.862 964.5 566.368 965.5 565.862 965.5 566.368M965.5 566.368C965.5 566.874 965.5 567.886 965.5 568.392M965.5 566.368 965.5 568.392M965.5 568.392C965.5 568.797 965.833 569.91 966 570.416 966.333 570.753 967.1 571.428 967.5 571.428 967.9 571.428 968.667 571.765 969 571.934M969 571.934C969 572.271 969 573.047 969 573.452M969 571.934 969 573.452M969 573.452C969 573.857 969.667 574.97 970 575.476 970.5 575.813 971.7 576.488 972.5 576.488 973.5 576.488 982 577.5 983.5 577.5 984.7 577.5 988.667 576.825 990.5 576.488L994 573.958 999 572.946 1002 572.946 1004 571.934 1004 569.404 1004.5 558.777 1003.5 556.753M1003.5 556.753C1002.5 556.753 1000.4 556.753 1000 556.753M1003.5 556.753 1000 556.753M1000 556.753C999.6 556.753 997.833 555.404 997 554.729 996.333 554.223 995 553.11 995 552.705 995 552.3 992 550.85 990.5 550.175L988.5 549.669 983.5 549.669 981 549.669M981 549.669 979 549.669M961.5 535.5C961.5 535.905 961.5 543.765 961.5 547.645M961.5 535.5 966.5 535.5 971.5 535.5 973 536.512 973.5 546.127 972 547.645 967 545.115 965.5 546.127 961.5 547.645M961.5 535.5 961.5 547.645" stroke="#000000" stroke-linecap="round" stroke-linejoin="round" stroke-miterlimit="10" fill="none" fill-rule="evenodd"/><path d="M1002.15 554.46 1000.21 554.46C998.587 554.384 997.282 552.993 995.773 551.384 994.764 550.308 993.684 549.157 992.383 548.303L992.383 536.705C992.383 534.662 990.732 533 988.703 533L944.746 533C942.717 533 941.066 534.662 941.066 536.705L941.066 546.116C941.066 546.866 941.669 547.473 942.414 547.473 943.158 547.473 943.761 546.866 943.761 546.116L943.761 536.705C943.761 536.168 944.212 535.714 944.746 535.714L959.659 535.714 959.659 547.718C959.659 548.211 959.925 548.665 960.353 548.904 960.557 549.018 960.782 549.074 961.006 549.074 961.255 549.074 961.503 549.005 961.721 548.868L966.726 545.719 971.727 548.868C972.143 549.13 972.667 549.144 973.095 548.905 973.524 548.665 973.79 548.211 973.79 547.718L973.79 535.714 988.703 535.714C989.237 535.714 989.688 536.167 989.688 536.705L989.688 547.153C989.249 547.06 988.789 547.005 988.302 546.996 988.294 546.996 988.287 546.996 988.279 546.996L984.865 546.996 982.213 546.996 980.685 546.996C980.678 546.996 980.672 546.996 980.664 546.996 979.04 547.022 978.205 547.763 977.791 548.38 977.148 549.339 977.088 550.637 977.623 552.034 977.747 552.36 977.899 552.669 978.073 552.959L967.854 552.959C965.659 552.959 963.872 554.757 963.872 556.967 963.872 557.422 963.948 557.859 964.086 558.267L963.729 558.267C961.533 558.267 959.747 560.065 959.747 562.276 959.747 564.486 961.533 566.285 963.729 566.285L964.085 566.285C963.947 566.691 963.872 567.127 963.872 567.58 963.872 569.721 965.545 571.476 967.643 571.587 967.503 571.995 967.428 572.433 967.428 572.888 967.428 575.099 969.214 576.897 971.41 576.897L988.106 576.897C988.681 576.897 989.205 576.826 989.687 576.705L989.687 580.956C989.687 581.496 989.236 581.951 988.703 581.951L957.487 581.951C957.751 581.003 957.896 580.006 957.896 578.974 957.896 572.896 952.984 567.951 946.948 567.951 945.84 567.951 944.77 568.119 943.761 568.429L943.761 558.315C943.761 557.565 943.157 556.958 942.413 556.958 941.669 556.958 941.066 557.565 941.066 558.315L941.066 569.685C938.023 571.645 936 575.075 936 578.974 936 585.054 940.911 590 946.948 590 950.919 590 954.402 587.86 956.322 584.665L988.703 584.665C990.732 584.665 992.383 583.001 992.383 580.956L992.383 575.37C992.68 575.156 992.965 574.936 993.241 574.722 994.431 573.799 995.459 573.002 997.095 573.002L1002.15 573.002C1003.72 573.002 1005 571.714 1005 570.132L1005 557.333C1005 555.749 1003.72 554.46 1002.15 554.46ZM971.094 545.269 967.441 542.968C967.004 542.693 966.449 542.693 966.012 542.968L962.354 545.27 962.354 535.714 971.094 535.714 971.094 545.269ZM946.948 587.286C942.397 587.286 938.695 583.558 938.695 578.974 938.695 574.392 942.397 570.665 946.948 570.665 951.499 570.665 955.201 574.392 955.201 578.974 955.201 583.558 951.499 587.286 946.948 587.286ZM1002.3 570.132C1002.3 570.215 1002.23 570.288 1002.15 570.288L997.095 570.288C994.54 570.288 992.976 571.502 991.596 572.573 990.436 573.473 989.519 574.184 988.106 574.184L971.41 574.184C970.701 574.184 970.123 573.602 970.123 572.888 970.123 572.174 970.701 571.593 971.41 571.593L975.883 571.593C976.628 571.593 977.231 570.985 977.231 570.236 977.231 569.487 976.628 568.879 975.883 568.879L967.854 568.879C967.145 568.879 966.568 568.297 966.568 567.58 966.568 566.866 967.145 566.285 967.854 566.285L975.883 566.285C976.628 566.285 977.231 565.677 977.231 564.928 977.231 564.179 976.628 563.571 975.883 563.571L963.729 563.571C963.019 563.571 962.442 562.99 962.442 562.276 962.442 561.561 963.019 560.98 963.729 560.98L975.883 560.98C976.628 560.98 977.231 560.373 977.231 559.624 977.231 558.874 976.628 558.267 975.883 558.267L967.854 558.267C967.145 558.267 966.568 557.684 966.568 556.968 966.568 556.253 967.145 555.672 967.854 555.672L982.892 555.672 985.816 555.672 987.77 555.672C988.514 555.672 989.118 555.065 989.118 554.315 989.118 553.566 988.514 552.959 987.77 552.959L985.816 552.959 982.892 552.959C981.659 552.959 980.578 552.214 980.139 551.06 979.882 550.39 979.952 550.008 980.025 549.899 980.098 549.79 980.361 549.716 980.697 549.71L984.865 549.71 988.266 549.71C990.539 549.755 992.129 551.451 993.813 553.247 995.574 555.125 997.396 557.067 1000.13 557.172 1000.15 557.173 1000.16 557.173 1000.18 557.173L1002.15 557.173C1002.23 557.173 1002.3 557.247 1002.3 557.333L1002.3 570.132 1002.3 570.132Z" fill="#7030A0" fill-rule="evenodd"/><path d="M942.5 554C943.328 554 944 553.325 944 552.498 944 551.671 943.328 551 942.5 551 941.672 551 941 551.671 941 552.498L941 552.506C941 553.334 941.672 554 942.5 554Z" fill="#FDC040" fill-rule="evenodd"/></g></svg>