<svg width="69" height="71" xmlns="http://www.w3.org/2000/svg" xmlns:xlink="http://www.w3.org/1999/xlink" overflow="hidden"><defs><clipPath id="clip0"><rect x="466" y="123" width="69" height="71"/></clipPath></defs><g clip-path="url(#clip0)" transform="translate(-466 -123)"><path d="M510 157.318 513.578 151.753 518.689 149.223C519.37 149.055 520.836 148.819 521.244 149.223 521.653 149.628 527.548 157.486 530.445 161.365L533 165.918C532.489 166.929 531.365 169.054 530.956 169.459 530.547 169.864 526.696 171.651 524.822 172.494 523.8 172.663 521.653 173 521.244 173 520.836 173 515.963 166.592 513.578 163.388L510.894 158.835 510 157.318Z" fill="#FDC040" fill-rule="evenodd"/><path d="M521 172.521C520.6 172.521 515.833 166.404 513.5 163.346L510.875 159 509 159 504 159C503.5 159 501 159.966 500 160.449L497 161.897C496 162.38 495 163.346 494.5 163.829 494 164.312 493 165.761 493 166.244 493 166.726 493 167.692 493.5 168.175 494 168.658 495 169.141 495.5 169.141L498.5 169.141C499.3 169.141 501.5 168.175 502.5 167.692 502.833 167.853 503.6 168.272 504 168.658 504.4 169.044 507.833 171.394 509.5 172.521L513.5 176.384C514.167 176.706 515.6 177.254 516 176.867 516.4 176.481 517.833 175.419 518.5 174.936L520 173.97 521 172.521Z" fill="#FDC040" fill-rule="evenodd"/><path d="M481 177.766C481 178.581 482.333 180.145 483 180.824L486.5 183.883 488.5 185.412 490.5 187.451C491.167 187.791 492.5 188.573 492.5 188.98 492.5 189.388 494.5 189.83 495.5 190 496 189.66 497.1 188.879 497.5 188.471 498 187.961 498 187.961 498 186.941 498 185.922 498 184.902 497.5 183.883 497 182.863 497 180.824 496.5 180.315 496 179.805 494 178.785 494 178.276 494 177.766 492.5 175.727 492 175.217 491.5 174.707 490.5 172.668 490 172.158 489.5 171.649 488 170.629 487 171.139 486 171.649 483 174.197 482.5 174.707 482.1 175.115 481.333 176.916 481 177.766Z" fill="#FDC040" fill-rule="evenodd"/><path d="M490.585 129C493.642 133.167 502.404 141.3 513 140.5L510.962 146.5 507.906 149 498.226 152 490.585 149.5 486 141.5 486.509 135 489.057 130.5 490.585 129Z" fill="#FDC040" fill-rule="evenodd"/><path d="M499.382 142.344C498.825 142.344 498.142 142.266 497.675 141.77 497.512 141.596 497.37 141.433 497.231 141.297 496.118 140.18 494.199 141.731 495.361 143.181L495.642 143.526C495.825 143.743 496.154 143.995 496.626 144.282 497.085 144.561 497.597 144.763 498.166 144.883L498.166 146.798C498.166 147.457 498.731 148 499.423 148 500.118 148 500.707 147.457 500.707 146.798L500.707 144.871C501.618 144.67 502.399 144.247 503.037 143.608 503.679 142.968 504 142.119 504 141.061 504 140.34 503.854 139.739 503.561 139.254 503.268 138.773 502.911 138.436 502.484 138.246 502.053 138.056 501.585 137.889 501.069 137.746 500.557 137.602 500.089 137.502 499.658 137.44 499.232 137.381 498.874 137.257 498.581 137.075 498.288 136.889 498.142 136.649 498.142 136.35 498.142 134.924 500.337 135.098 501.305 135.873 502.732 137.017 504.329 134.924 502.675 133.741L502.484 133.578C502.353 133.481 502.126 133.361 501.797 133.21 501.471 133.059 501.105 132.946 500.707 132.865L500.707 131.706 500.707 131.202C500.707 130.543 500.142 130 499.447 130 498.756 130 498.187 130.542 498.187 131.202L498.187 132.845C497.26 133.02 496.491 133.458 495.959 134.105 495.422 134.765 495.15 135.494 495.15 136.307 495.15 137.126 495.349 137.796 495.747 138.327 496.146 138.858 496.63 139.231 497.203 139.448 497.772 139.665 498.341 139.839 498.91 139.967 499.483 140.099 499.967 140.242 500.365 140.409 500.764 140.572 500.963 140.801 500.963 141.099 500.963 141.929 500.435 142.344 499.382 142.344Z" fill="#7030A0" fill-rule="evenodd"/><path d="M533.179 162.772 522.071 148.515C521.323 147.552 520.188 147 518.959 147 518.091 147 517.27 147.276 516.58 147.8L509.31 153.353C508.478 153.988 507.947 154.911 507.813 155.95 507.793 156.104 507.784 156.259 507.783 156.412 505.011 156.202 502.149 156.414 499.369 158.224L499.244 158.305 492.212 157.228C492.226 156.984 492.218 156.737 492.186 156.489 492.052 155.452 491.521 154.532 490.691 153.898L483.419 148.35C481.716 147.045 479.252 147.362 477.928 149.059L475.28 152.458C474.816 153.053 474.922 153.911 475.515 154.376 476.109 154.84 476.966 154.734 477.429 154.139L480.076 150.741C480.477 150.228 481.249 150.127 481.765 150.522L489.038 156.071C489.285 156.259 489.442 156.532 489.482 156.84 489.522 157.149 489.439 157.454 489.249 157.698L478.139 171.957C477.741 172.47 476.967 172.57 476.452 172.178L469.182 166.625C468.935 166.436 468.776 166.162 468.737 165.853 468.697 165.546 468.78 165.243 468.972 164.998L470.861 162.574C471.324 161.979 471.218 161.121 470.625 160.657 470.031 160.192 469.174 160.298 468.711 160.893L466.823 163.316C466.18 164.14 465.899 165.165 466.032 166.202 466.165 167.24 466.697 168.163 467.529 168.798L474.802 174.353C475.509 174.891 476.346 175.151 477.177 175.151 477.657 175.151 478.135 175.063 478.586 174.892L479.527 176.184C479.016 177.119 478.936 178.242 479.347 179.326 479.935 180.876 481.322 181.927 482.822 181.977 482.868 182.198 482.933 182.418 483.021 182.637 483.626 184.138 485.006 185.16 486.49 185.227 486.497 185.266 486.502 185.305 486.51 185.344 486.792 186.719 487.845 187.893 489.191 188.335 489.534 188.448 489.88 188.506 490.222 188.516 490.353 189.069 490.627 189.604 491.049 190.073 491.706 190.805 492.665 191.273 493.717 191.273 494.481 191.273 495.294 191.024 496.076 190.452L497.619 191.898C498.406 192.633 499.395 193 500.376 193 501.37 193 502.355 192.622 503.107 191.868 503.555 191.419 503.902 190.884 504.127 190.321 504.51 190.437 504.884 190.493 505.243 190.493 506.254 190.492 507.147 190.065 507.786 189.405 508.309 188.865 508.683 188.146 508.849 187.38 508.904 187.383 508.96 187.385 509.015 187.386 509.029 187.386 509.042 187.386 509.056 187.386 510.131 187.386 511.163 186.969 511.892 186.238 512.402 185.726 512.753 185.095 512.921 184.407 513.181 184.458 513.442 184.484 513.703 184.484 514.031 184.484 514.358 184.444 514.681 184.361 515.995 184.023 517.01 182.994 517.33 181.674 517.625 180.456 517.321 179.173 516.494 178.007 518.635 176.281 519.501 175.431 520.479 173.841 521.147 174.334 521.961 174.605 522.82 174.605 523.69 174.605 524.514 174.327 525.198 173.803L532.472 168.253C533.302 167.619 533.833 166.699 533.967 165.662 534.101 164.625 533.822 163.599 533.179 162.772ZM483.535 178.965C483.326 179.154 483.124 179.249 482.933 179.249 482.541 179.249 482.086 178.857 481.896 178.356 481.724 177.9 481.804 177.52 482.136 177.225L482.14 177.221 482.145 177.217 486.737 173.127C487.122 172.785 487.508 172.605 487.856 172.605 488.365 172.605 488.745 172.992 488.883 173.351 489.03 173.736 488.942 174.079 488.62 174.37L487.82 175.093 487.818 175.095C487.814 175.098 487.81 175.102 487.806 175.105 487.777 175.132 487.748 175.158 487.718 175.185L483.535 178.965ZM487.248 182.23C487.04 182.413 486.843 182.502 486.645 182.502 486.231 182.502 485.75 182.112 485.549 181.614 485.328 181.066 485.591 180.813 485.673 180.732 485.727 180.681 485.791 180.62 485.857 180.548L485.859 180.547 485.873 180.535C486.135 180.3 488.444 178.209 489.548 177.21L489.63 177.136C490.004 176.807 490.383 176.633 490.726 176.633 491.267 176.633 491.67 177.048 491.816 177.434 491.96 177.817 491.873 178.153 491.559 178.43L491.276 178.679C491.274 178.681 491.272 178.683 491.27 178.685L491.268 178.687 487.248 182.23ZM491.311 185.178C491.292 185.195 491.275 185.213 491.256 185.23L490.936 185.519C490.652 185.777 490.367 185.847 490.04 185.739 489.627 185.603 489.266 185.206 489.181 184.794 489.107 184.436 489.25 184.104 489.613 183.783L490.068 183.385C490.08 183.375 490.09 183.364 490.101 183.354L493.081 180.728C493.795 180.095 494.502 180.032 494.973 180.559 495.039 180.633 495.6 181.302 494.915 181.922L493.085 183.577C493.065 183.594 493.045 183.61 493.026 183.628 493.019 183.634 493.013 183.641 493.006 183.648L491.332 185.162C491.325 185.167 491.318 185.172 491.311 185.178ZM493.076 188.246C492.932 188.086 492.655 187.671 493.11 187.234L494.936 185.583C495.074 185.465 495.207 185.371 495.331 185.307 495.337 185.304 495.343 185.301 495.348 185.298 496.084 184.904 496.483 185.363 496.588 185.513 496.723 185.706 496.887 186.085 496.474 186.457L495.223 187.583C495.218 187.587 495.214 187.592 495.209 187.596L494.667 188.084C493.776 188.886 493.224 188.411 493.076 188.246ZM514.68 181.03C514.596 181.376 514.35 181.626 514.004 181.715 513.43 181.862 512.704 181.543 512.04 180.859 511.99 180.804 511.939 180.749 511.885 180.697L506.739 175.6C506.204 175.07 505.34 175.074 504.811 175.611 504.282 176.147 504.287 177.012 504.822 177.543L509.96 182.632C509.969 182.641 509.977 182.65 509.986 182.659 510.191 182.87 510.305 183.153 510.307 183.459 510.308 183.782 510.186 184.083 509.962 184.307 509.742 184.528 509.413 184.654 509.057 184.654 509.051 184.654 509.047 184.654 509.042 184.654 508.726 184.651 508.439 184.545 508.236 184.361 508.151 184.25 508.058 184.143 507.956 184.04L504.194 180.266C503.662 179.732 502.798 179.732 502.266 180.265 501.733 180.798 501.732 181.663 502.264 182.197L505.832 185.776C505.875 185.839 505.923 185.9 505.978 185.957L506.13 186.113C506.325 186.487 506.204 187.115 505.83 187.502 505.252 188.098 504.438 187.573 503.859 187.027L502.248 185.508C501.7 184.99 500.837 185.017 500.321 185.566 499.805 186.115 499.831 186.98 500.379 187.497L501.61 188.658C501.613 188.661 501.615 188.664 501.618 188.666 501.646 188.693 501.689 188.733 501.691 188.87 501.696 189.19 501.485 189.629 501.178 189.938 500.729 190.387 499.983 190.371 499.48 189.901L498.131 188.638 498.296 188.489C499.634 187.285 499.85 185.417 498.821 183.946 498.487 183.467 498.067 183.095 497.597 182.837 498.26 181.527 498.075 179.936 497.005 178.738 496.401 178.062 495.548 177.6 494.597 177.497 494.569 177.155 494.495 176.809 494.366 176.469 493.903 175.24 492.874 174.336 491.662 174.023 491.712 173.478 491.637 172.917 491.428 172.37 490.854 170.876 489.419 169.872 487.856 169.872 486.831 169.872 485.819 170.291 484.927 171.083L481.446 174.184 480.681 173.134 491.059 159.815 495.804 160.542 495.086 161.009C491.241 163.508 490.96 166.415 491.979 168.302 492.794 169.813 494.422 170.676 496.149 170.676 496.86 170.676 497.588 170.529 498.284 170.222 498.302 170.213 498.32 170.205 498.338 170.196L501.932 168.41 504.007 170.303C504.009 170.305 504.012 170.307 504.013 170.308 504.015 170.31 504.017 170.312 504.019 170.314L513.61 178.86C514.432 179.593 514.832 180.404 514.68 181.03ZM514.565 176.056 505.837 168.278 503.079 165.762C502.664 165.383 502.059 165.298 501.556 165.548L497.156 167.734C495.961 168.249 494.785 167.759 494.377 167.003 493.816 165.963 494.656 164.545 496.57 163.301L500.854 160.516C503.176 159.003 505.613 158.886 508.945 159.273L518.596 171.664C517.577 173.496 517.037 174.078 514.565 176.056ZM531.263 165.311C531.223 165.619 531.066 165.892 530.82 166.08L523.544 171.631C523.283 171.831 523.006 171.873 522.82 171.873 522.438 171.873 522.087 171.704 521.858 171.411L510.752 157.152C510.561 156.908 510.478 156.605 510.518 156.298 510.557 155.989 510.715 155.715 510.963 155.526L518.231 149.975C518.494 149.774 518.772 149.732 518.959 149.732 519.342 149.732 519.692 149.9 519.921 150.195L531.029 164.452C531.22 164.698 531.303 165.003 531.263 165.311Z" fill="#7030A0" fill-rule="evenodd"/><path d="M492.608 152.202C494.717 153.379 497.1 154 499.498 154 507.494 154 514 147.27 514 138.998 514 133.225 510.738 127.901 505.691 125.435 503.747 124.483 501.664 124 499.498 124 491.504 124 485 130.728 485 138.998 485 144.514 487.914 149.573 492.608 152.202ZM499.498 126.776C501.262 126.776 502.959 127.169 504.542 127.944 508.655 129.954 511.313 134.293 511.313 138.998 511.313 145.739 506.013 151.224 499.498 151.224 497.544 151.224 495.602 150.717 493.886 149.76 490.062 147.618 487.687 143.494 487.687 138.998 487.687 132.259 492.985 126.776 499.498 126.776Z" fill="#7030A0" fill-rule="evenodd"/><path d="M472.561 158.675C472.836 158.894 473.164 159 473.491 159 473.929 159 474.363 158.808 474.657 158.439L474.674 158.418C475.188 157.775 475.083 156.838 474.439 156.325 473.795 155.812 472.856 155.917 472.343 156.56L472.326 156.582C471.812 157.225 471.917 158.162 472.561 158.675Z" fill="#7030A0" fill-rule="evenodd"/></g></svg>