<svg width="65" height="71" xmlns="http://www.w3.org/2000/svg" xmlns:xlink="http://www.w3.org/1999/xlink" overflow="hidden"><defs><clipPath id="clip0"><rect x="881" y="181" width="65" height="71"/></clipPath></defs><g clip-path="url(#clip0)" transform="translate(-881 -181)"><path d="M943 231C943 240.941 934.941 249 925 249 915.059 249 907 240.941 907 231 907 221.059 915.059 213 925 213 934.941 213 943 221.059 943 231Z" fill="#FDC040" fill-rule="evenodd"/><path d="M929.196 211.869 929.196 198.812C929.196 198.438 929.023 198.092 928.778 197.819L914.085 182.446C913.81 182.158 913.421 182 913.031 182L889.736 182C885.435 182 882 185.494 882 189.78L882 233.671C882 237.957 885.435 241.394 889.736 241.394L908.124 241.394C911.602 247.146 917.924 251 925.126 251 936.066 251 945 242.141 945 231.226 945.015 221.692 938.144 213.725 929.196 211.869ZM914.474 187.048 924.332 197.388 917.938 197.388C916.033 197.388 914.474 195.82 914.474 193.922L914.474 187.048ZM889.736 238.517C887.037 238.517 884.887 236.36 884.887 233.671L884.887 189.78C884.887 187.076 887.037 184.876 889.736 184.876L911.588 184.876 911.588 193.922C911.588 197.416 914.431 200.264 917.938 200.264L926.309 200.264 926.309 211.495C925.876 211.481 925.53 211.438 925.155 211.438 920.118 211.438 915.485 213.365 911.992 216.385L893.662 216.385C892.868 216.385 892.219 217.032 892.219 217.823 892.219 218.614 892.868 219.261 893.662 219.261L909.307 219.261C908.282 220.699 907.431 222.138 906.767 223.719L893.662 223.719C892.868 223.719 892.219 224.366 892.219 225.158 892.219 225.948 892.868 226.596 893.662 226.596L905.829 226.596C905.468 228.034 905.281 229.63 905.281 231.226 905.281 233.815 905.786 236.375 906.695 238.532L889.736 238.532 889.736 238.517ZM925.14 248.138C915.788 248.138 908.182 240.559 908.182 231.241 908.182 221.922 915.773 214.343 925.14 214.343 934.507 214.343 942.099 221.922 942.099 231.241 942.099 240.559 934.493 248.138 925.14 248.138Z" fill="#7030A0" fill-rule="evenodd"/><path d="M893.484 212 908.516 212C909.332 212 910 211.325 910 210.5 910 209.675 909.332 209 908.516 209L893.484 209C892.668 209 892 209.675 892 210.5 892 211.325 892.668 212 893.484 212Z" fill="#7030A0" fill-rule="evenodd"/><path d="M924.524 222.074C924.647 222.102 924.77 222.117 924.893 222.117 925.046 222.117 925.184 222.102 925.323 222.06 927.349 222.216 928.93 223.78 928.93 225.685 928.93 226.466 929.621 227.105 930.465 227.105 931.309 227.105 932 226.466 932 225.685 932 222.558 929.606 219.942 926.428 219.331L926.428 218.421C926.428 217.639 925.737 217 924.893 217 924.048 217 923.357 217.639 923.357 218.421L923.357 219.388C920.287 220.07 918 222.643 918 225.685 918 229.266 921.147 232.166 925 232.166 927.165 232.166 928.93 233.8 928.93 235.804 928.93 237.808 927.18 239.457 925 239.457 922.835 239.457 921.07 237.822 921.07 235.818 921.07 235.037 920.379 234.397 919.535 234.397 918.691 234.397 918 235.037 918 235.818 918 238.874 920.287 241.432 923.357 242.115L923.357 243.579C923.357 244.361 924.048 245 924.893 245 925.737 245 926.428 244.361 926.428 243.579L926.428 242.157C929.606 241.546 932 238.931 932 235.804 932 232.222 928.853 229.323 925 229.323 922.835 229.323 921.07 227.688 921.07 225.685 921.07 223.836 922.575 222.288 924.524 222.074Z" fill="#7030A0" fill-rule="evenodd"/></g></svg>