<svg width="70" height="71" xmlns="http://www.w3.org/2000/svg" xmlns:xlink="http://www.w3.org/1999/xlink" overflow="hidden"><defs><clipPath id="clip0"><rect x="131" y="111" width="70" height="71"/></clipPath></defs><g clip-path="url(#clip0)" transform="translate(-131 -111)"><path d="M181.652 177.077C180.953 177.077 180.378 177.611 180.311 178.295L170.166 178.295 168.565 168.624 170.344 166.839C170.597 166.585 170.739 166.241 170.739 165.882 170.739 165.524 170.597 165.18 170.344 164.926L168.77 163.346 171.46 163.346C174.412 163.346 177.158 164.817 178.807 167.279 179.222 167.899 180.06 168.064 180.678 167.648 181.296 167.231 181.46 166.39 181.045 165.77 178.912 162.584 175.367 160.672 171.551 160.642 172.857 159.191 173.653 157.27 173.653 155.165L173.653 153.181C173.653 148.67 169.996 145 165.5 145 161.004 145 157.347 148.67 157.347 153.181L157.347 155.165C157.347 157.27 158.144 159.192 159.45 160.643 153.128 160.692 148 165.866 148 172.221L148 179.647C148 180.394 148.604 181 149.348 181L181.652 181C182.397 181 183 180.394 183 179.647L183 178.43C183 177.683 182.397 177.077 181.652 177.077ZM165.516 167.858 163.547 165.882 165.516 163.907 167.485 165.882 165.516 167.858ZM164.818 170.927C165.032 171.057 165.274 171.124 165.516 171.124 165.758 171.124 166 171.057 166.213 170.927L167.433 178.295 163.599 178.295 164.818 170.927ZM160.044 153.181C160.044 150.162 162.491 147.705 165.5 147.705 168.509 147.705 170.957 150.162 170.957 153.181L170.957 155.165C170.957 158.184 168.509 160.641 165.5 160.641 162.491 160.641 160.044 158.185 160.044 155.165L160.044 153.181ZM150.697 172.221C150.697 167.327 154.664 163.346 159.541 163.346L162.261 163.346 160.687 164.926C160.434 165.18 160.292 165.524 160.292 165.882 160.292 166.241 160.434 166.585 160.687 166.839L162.466 168.624 160.865 178.295 150.696 178.295 150.696 172.221 150.697 172.221Z" fill="#7030A0" fill-rule="evenodd"/><path d="M159 113C159.4 113 168.5 113.333 173 113.5L173 128 159 127.5 159 113Z" fill="#FDC040" fill-rule="evenodd"/><path d="M191 114 184 127 199 127 192 114.5 191 114Z" fill="#FDC040" fill-rule="evenodd"/><path d="M159.5 113.5C159.9 113.5 169 113.833 173.5 114L173.5 128.5 159.5 128 159.5 113.5Z" stroke="#000000" stroke-linecap="round" stroke-linejoin="round" stroke-miterlimit="10" fill="none" fill-rule="evenodd"/><path d="M191.5 114.5 184.5 127.5 199.5 127.5 192.5 115 191.5 114.5Z" stroke="#000000" stroke-linecap="round" stroke-linejoin="round" stroke-miterlimit="10" fill="none" fill-rule="evenodd"/><path d="M148 120.5C148 115.813 144.187 112 139.5 112 134.813 112 131 115.813 131 120.5 131 125.187 134.813 129 139.5 129 144.187 129 148 125.187 148 120.5ZM133.659 120.5C133.659 117.279 136.279 114.659 139.5 114.659 142.721 114.659 145.341 117.279 145.341 120.5 145.341 123.721 142.721 126.341 139.5 126.341 136.279 126.341 133.659 123.721 133.659 120.5Z" fill="#7030A0" fill-rule="evenodd"/><path d="M158.329 129 172.671 129C173.405 129 174 128.405 174 127.671L174 113.329C174 112.595 173.405 112 172.671 112L158.329 112C157.595 112 157 112.595 157 113.329L157 127.671C157 128.405 157.595 129 158.329 129ZM159.659 114.659 171.341 114.659 171.341 126.341 159.659 126.341 159.659 114.659Z" fill="#7030A0" fill-rule="evenodd"/><path d="M199.822 125.999 192.151 112.667C191.914 112.254 191.475 112 191 112 190.525 112 190.086 112.254 189.849 112.667L182.178 125.999C181.941 126.412 181.941 126.92 182.178 127.333 182.416 127.746 182.854 128 183.329 128L198.671 128C199.146 128 199.585 127.746 199.822 127.333 200.059 126.92 200.059 126.412 199.822 125.999ZM185.632 125.332 191 116.002 196.368 125.332 185.632 125.332Z" fill="#7030A0" fill-rule="evenodd"/><path d="M166 142C166.774 142 167.402 141.438 167.402 140.745L167.402 137.165 167.458 137.236C167.732 137.578 168.162 137.76 168.599 137.76 168.882 137.76 169.167 137.684 169.414 137.526 170.043 137.123 170.189 136.339 169.738 135.775L167.14 132.525C166.877 132.195 166.452 132 166 132 165.548 132 165.123 132.195 164.86 132.525L162.262 135.775C161.811 136.339 161.957 137.123 162.586 137.526 163.215 137.929 164.091 137.799 164.542 137.236L164.598 137.165 164.598 140.745C164.598 141.438 165.226 142 166 142Z" fill="#FDC040" fill-rule="evenodd"/><path d="M155 153.653C155 152.908 154.385 152.305 153.625 152.305L141.298 152.305 141.298 137.546 141.354 137.622C141.622 137.99 142.044 138.186 142.473 138.186 142.75 138.186 143.029 138.104 143.272 137.934 143.889 137.501 144.032 136.659 143.59 136.054L141.041 132.563C140.783 132.21 140.367 132 139.923 132 139.48 132 139.064 132.21 138.805 132.563L136.257 136.054C135.815 136.659 135.957 137.501 136.575 137.934 137.192 138.367 138.051 138.228 138.493 137.622L138.548 137.546 138.548 153.653C138.548 154.397 139.164 155 139.923 155L153.625 155C154.384 155 155 154.397 155 153.653Z" fill="#FDC040" fill-rule="evenodd"/><path d="M193.195 132.563C192.936 132.21 192.52 132 192.077 132 191.633 132 191.217 132.21 190.959 132.563L188.41 136.054C187.969 136.659 188.111 137.501 188.728 137.934 189.346 138.367 190.204 138.228 190.646 137.622L190.702 137.546 190.702 152.305 178.375 152.305C177.616 152.305 177 152.908 177 153.653 177 154.397 177.616 155 178.375 155L192.077 155C192.836 155 193.451 154.397 193.451 153.653L193.451 137.546 193.507 137.622C193.776 137.99 194.198 138.186 194.626 138.186 194.903 138.186 195.183 138.104 195.425 137.934 196.043 137.501 196.185 136.659 195.743 136.054L193.195 132.563Z" fill="#FDC040" fill-rule="evenodd"/><path d="M182 174C182.552 174 183 173.329 183 172.5 183 171.672 182.552 171 182 171 181.448 171 181 171.672 181 172.5 181 173.329 181.448 174 182 174Z" fill="#FDC040" fill-rule="evenodd"/><path d="M134 120.5C134 116.91 136.686 114 140 114 143.314 114 146 116.91 146 120.5 146 124.09 143.314 127 140 127 136.686 127 134 124.09 134 120.5Z" fill="#FDC040" fill-rule="evenodd"/></g></svg>